PathFileType	4	(X/Y/Z)	C:/Users/opensim2020/Desktop/walking_exp_matlab/subject01_walking06_straight_03.trc																																																																																																																															
DataRate	CameraRate	NumFrames	NumMarkers	Units	OrigDataRate	OrigDataStartFrame	OrigNumFrames																																																																																																																											
100	100	8	43	mm	100	2182	206																																																																																																																											
Frame#	Time	LFHD			RFHD			LBHD			RBHD			C7			T10			CLAV			STRN			RBAK			LSHO			LUPA			LELB			LFRM			LWRA			LWRB			LFIN			RSHO			RUPA			RELB			RFRM			RWRA			RWRB			RFIN			LASI			RASI			LPSI			RPSI			LTHI			LKNE			LTIB			LANK			LHEE			LTOE			RTHI			RKNE			RTIB			RANK			RHEE			RTOE			*39			*40			*41			*42		
		X1	Y1	Z1	X2	Y2	Z2	X3	Y3	Z3	X4	Y4	Z4	X5	Y5	Z5	X6	Y6	Z6	X7	Y7	Z7	X8	Y8	Z8	X9	Y9	Z9	X10	Y10	Z10	X11	Y11	Z11	X12	Y12	Z12	X13	Y13	Z13	X14	Y14	Z14	X15	Y15	Z15	X16	Y16	Z16	X17	Y17	Z17	X18	Y18	Z18	X19	Y19	Z19	X20	Y20	Z20	X21	Y21	Z21	X22	Y22	Z22	X23	Y23	Z23	X24	Y24	Z24	X25	Y25	Z25	X26	Y26	Z26	X27	Y27	Z27	X28	Y28	Z28	X29	Y29	Z29	X30	Y30	Z30	X31	Y31	Z31	X32	Y32	Z32	X33	Y33	Z33	X34	Y34	Z34	X35	Y35	Z35	X36	Y36	Z36	X37	Y37	Z37	X38	Y38	Z38	X39	Y39	Z39	X40	Y40	Z40	X41	Y41	Z41	X42	Y42	Z42	X43	Y43	Z43
																																																																																																																																		
78	0.77	-312.14627	1652.77417	1392.92493	-281.28036	1660.13049	1503.12659	-427.32361	1611.92993	1420.32092	-397.75534	1618.93237	1537.09656	-464.14749	1417.66711	1461.03772	-500.09943	1123.85791	1470.0896	-319.30963	1348.99597	1452.7384	-277.81699	1195.24915	1440.58167	-514.78668	1219.78394	1535.72607	-387.29312	1381.00854	1295.48914	-399.16748	1199.61438	1204.61108	-386.29605	1045.9292	1191.9093	-297.0889	969.25305	1168.03638	-170.7086	915.34979	1185.6731	-213.63106	880.57703	1163.7002	-136.18736	849.89227	1151.75586	-376.71341	1373.19739	1609.07019	-454.87738	1176.71155	1702.45886	-468.48621	1054.6488	1702.90894	-467.18881	935.65045	1735.23462	-413.15149	803.77643	1722.07556	-458.07391	815.19757	1758.85803	-440.49744	731.15631	1757.05908	-346.00726	915.5025	1341.55396	-310.75473	920.33685	1554.79285	-521.50226	931.39783	1428.26257	-495.9032	928.35266	1572.16528	-453.21313	592.4826	1300.0918	-498.00659	462.37521	1316.73999	-614.6449	311.38235	1321.64343	-715.98785	115.07697	1379.36243	-760.73022	105.96027	1437.15381	-593.67108	30.11541	1365.53308	-287.62158	597.77618	1616.95178	-237.08842	451.64032	1582.3479	-244.91443	276.62469	1585.5144	-215.25294	72.32761	1536.85938	-258.26157	32.43747	1485.36365	-72.81727	46.37683	1535.77783	-295.65839	1693.99854	1482.12256	1973.17139	1023.42523	-3101.89648	2012.50842	1022.06122	-3140.70776	NaN	NaN	NaN
79	0.78	-302.49713	1653.75586	1394.88635	-271.27893	1661.08838	1504.98486	-417.65894	1613.0022	1422.67786	-387.63263	1619.92395	1539.35229	-453.87204	1418.69629	1463.07019	-489.39783	1124.46313	1471.23999	-309.3895	1350.09998	1454.47449	-267.32281	1196.52942	1441.97595	-504.65271	1220.43982	1537.51416	-377.52924	1381.92749	1297.35474	-390.16904	1200.68555	1206.59839	-378.30621	1046.97266	1193.38049	-289.87555	969.30524	1169.35742	-164.24051	913.69061	1186.90015	-207.60439	879.59058	1164.67139	-130.57988	848.01385	1152.71021	-366.69235	1373.45703	1610.84338	-443.68979	1176.3479	1703.99548	-456.8363	1054.09546	1704.16406	-454.71289	934.98492	1736.30444	-399.62198	803.61108	1722.99536	-444.60559	814.50269	1759.65466	-426.86005	730.38245	1757.80896	-335.21347	915.98389	1342.08459	-299.86237	921.13287	1555.19666	-510.50317	931.89178	1428.55334	-485.28436	929.91479	1572.41089	-440.18509	592.48114	1300.32104	-484.20642	462.13779	1316.16272	-604.47321	313.93411	1320.93079	-711.49097	120.62809	1378.14294	-756.17413	113.59422	1436.1449	-593.26233	30.14571	1365.50903	-280.41302	597.98224	1618.35474	-227.86571	452.56671	1583.40027	-237.95761	276.92004	1586.78809	-213.15994	72.23435	1537.22473	-257.29788	33.271	1485.91174	-70.85505	43.66349	1534.72131	-285.57416	1695.03662	1483.99719	1973.22498	1023.31738	-3101.81934	2012.50415	1022.06982	-3140.70532	NaN	NaN	NaN
80	0.79	-292.91196	1654.89307	1396.88208	-261.28271	1662.11768	1506.83752	-407.93732	1614.08911	1425.0625	-377.50443	1620.94421	1541.64832	-443.82465	1419.71423	1465.00842	-478.9433	1125.23669	1472.42664	-299.33783	1351.29285	1456.2207	-256.84705	1197.97046	1443.31836	-494.50891	1221.23218	1539.17322	-367.73071	1383.0896	1299.24524	-381.23038	1202.05469	1208.6322	-370.29248	1048.36694	1194.86133	-283.04202	969.79773	1170.82141	-158.31432	911.99701	1188.18652	-202.12042	878.4809	1165.88074	-125.80594	845.84155	1153.63098	-356.73669	1373.96545	1612.58752	-432.35834	1176.23547	1705.48352	-444.88297	1053.84143	1705.40881	-441.90701	934.75244	1737.33508	-385.69131	803.82013	1723.95386	-430.88974	814.38684	1760.61218	-412.26822	730.43237	1758.74524	-324.42151	916.64923	1342.77258	-289.27271	922.43585	1555.74048	-499.50296	932.82208	1428.65125	-474.6864	931.89459	1572.50916	-426.47159	592.55768	1300.61255	-469.46738	462.13742	1315.65466	-593.56177	316.76462	1320.24048	-706.17151	126.86659	1376.87732	-750.45374	121.75668	1434.86755	-592.57123	30.18644	1365.61255	-272.08585	599.01904	1619.30566	-219.43985	452.66302	1584.17383	-232.48956	276.6319	1587.64099	-211.60558	72.21012	1537.31592	-255.923	33.60203	1486.43945	-69.61805	41.66012	1534.5874	-275.40662	1696.08679	1485.95715	1972.98425	1023.86389	-3101.96851	2012.55371	1022.07593	-3140.62817	NaN	NaN	NaN
81	0.8	-283.25681	1656.15112	1398.89453	-251.272	1663.26367	1508.72571	-398.19949	1615.28076	1427.46008	-367.36429	1621.98352	1543.91614	-433.88803	1420.63196	1467.02686	-468.54956	1126.19324	1473.52124	-289.30444	1352.5957	1457.97021	-246.41608	1199.49402	1444.60046	-484.23892	1222.01917	1540.57532	-357.92249	1384.46741	1301.17615	-372.29822	1203.52454	1210.56348	-362.6369	1050.01501	1196.47852	-276.48349	970.22504	1172.146	-152.89857	910.23499	1189.59509	-197.14157	877.4588	1167.04004	-121.396	843.74542	1154.76062	-346.81607	1374.76355	1614.38794	-420.85202	1176.29871	1706.94958	-432.74927	1053.88904	1706.61072	-428.78445	934.84351	1738.36206	-371.4852	804.42548	1724.93713	-416.61923	814.59869	1761.60681	-397.37244	730.68756	1759.61536	-313.43091	917.58228	1343.77783	-278.86319	923.94434	1556.70239	-488.66226	934.08875	1428.59216	-464.625	934.1203	1572.4729	-412.15121	592.56445	1300.86353	-453.58197	461.95694	1314.97937	-581.81226	319.95721	1319.31006	-699.74359	133.38683	1375.41357	-743.42096	130.73785	1433.56152	-592.65161	30.86551	1365.38025	-263.12128	600.20575	1619.50903	-211.39978	452.73102	1585.25793	-228.16356	276.42276	1588.60278	-210.65839	72.12058	1537.43237	-255.97495	34.33307	1486.875	-68.82686	40.21545	1534.38293	-265.42758	1697.27649	1488.00671	1973.2146	1023.3349	-3101.90088	2012.56934	1022.02057	-3140.54199	NaN	NaN	NaN
82	0.81	-273.65036	1657.47693	1400.90796	-241.24033	1664.47156	1510.6228	-388.47519	1616.56677	1429.82178	-357.19601	1623.1134	1546.19214	-424.24841	1421.56238	1468.9668	-458.44141	1127.42944	1474.57849	-279.30997	1353.98303	1459.66431	-236.16087	1201.01672	1445.88342	-474.1105	1222.87463	1542.03979	-348.21228	1385.88428	1303.09888	-363.8125	1205.13293	1212.58252	-355.2511	1051.7738	1197.93738	-270.30518	970.78528	1173.57568	-147.87238	908.37262	1191.03442	-192.65088	876.51642	1168.26782	-117.58037	841.39313	1155.98962	-336.85892	1375.78845	1616.18457	-409.32565	1176.60266	1708.34924	-420.37372	1054.27173	1707.92786	-415.38571	935.20593	1739.46069	-356.85049	805.29285	1725.92798	-402.2345	815.04114	1762.6261	-382.09378	731.24005	1760.55493	-302.28	918.75916	1345.16187	-268.80264	925.57202	1557.94324	-477.8873	935.39978	1428.46326	-454.5368	936.63055	1572.45227	-397.04416	592.46643	1300.98083	-436.55179	461.58282	1313.76123	-569.11493	323.71805	1318.13635	-691.87463	140.34435	1373.95532	-734.59888	140.1916	1432.61499	-591.56012	30.88965	1365.58557	-255.78813	599.33789	1618.08496	-204.34395	452.42072	1586.11646	-224.55652	276.10843	1589.401	-209.97281	72.04243	1537.56531	-255.51999	34.07841	1487.30005	-68.21172	39.19365	1533.85693	-255.54785	1698.52307	1490.05615	1973.16431	1023.34784	-3101.90649	2012.61377	1022.07202	-3140.57007	NaN	NaN	NaN
83	0.82	-264.0498	1658.73669	1402.90686	-231.23827	1665.64282	1512.55176	-378.71155	1617.71472	1432.1449	-347.06552	1624.18762	1548.41296	-414.50555	1422.53992	1470.93823	-448.34091	1128.54663	1475.45447	-269.34729	1355.32141	1461.2677	-226.07898	1202.40308	1447.08777	-463.79202	1223.74036	1543.49121	-338.60162	1387.40015	1305.00317	-355.00116	1206.85083	1214.09631	-348.00848	1053.54517	1199.38672	-264.47479	971.32117	1174.97205	-143.24988	906.47455	1192.54785	-188.63533	875.62726	1169.40808	-114.16307	839.0426	1157.33557	-326.81525	1376.87048	1617.82776	-397.61185	1177.10242	1709.77075	-407.83798	1054.73328	1709.24707	-401.70474	935.75018	1740.57788	-342.00922	806.4375	1726.86292	-387.31033	815.63483	1763.48279	-366.40375	731.97906	1761.40686	-291.45615	919.81622	1346.58728	-258.97162	927.32813	1559.50586	-467.24591	936.82782	1428.36292	-444.76334	938.84247	1572.38757	-381.13904	592.2749	1300.65906	-418.54538	461.26035	1311.97327	-554.96777	327.02524	1316.56201	-682.80084	147.44269	1372.57715	-724.30402	149.95271	1431.7002	-590.31836	31.08481	1366.10059	-243.67049	601.95941	1620.75525	-198.3282	452.21664	1587.10132	-220.85381	276.23071	1590.24353	-209.27423	72.02081	1537.62695	-255.9346	34.58684	1487.74622	-67.51234	38.28079	1533.14063	-245.65883	1699.69763	1492.05298	1973.12646	1023.25928	-3101.86157	2012.65295	1022.1532	-3140.51343	NaN	NaN	NaN
84	0.83	-254.403	1659.85278	1404.89282	-221.32056	1666.59106	1514.33057	-369.02655	1618.82349	1434.50085	-336.95468	1625.10852	1550.58411	-404.33176	1423.50232	1472.92834	-438.42731	1129.62024	1476.29175	-259.4343	1356.54529	1462.77466	-216.14601	1203.67993	1448.26697	-453.67776	1224.76001	1545.21997	-329.1629	1388.87061	1306.88647	-346.47467	1208.55005	1215.53162	-341.06424	1055.35254	1201.03003	-258.93127	971.83929	1176.35913	-138.9536	904.3382	1193.95178	-184.91232	874.95605	1170.30078	-110.98883	836.68457	1158.66797	-316.67642	1377.9707	1619.46252	-385.82257	1177.73059	1711.25049	-395.13437	1055.36523	1710.69641	-387.70203	936.4245	1741.78369	-326.79294	807.63257	1727.77698	-372.14932	816.57068	1764.63818	-350.47305	732.84766	1762.28662	-280.51892	921.14056	1348.32007	-249.37714	929.11279	1561.17407	-456.74249	938.15729	1428.38037	-435.12918	940.6178	1572.51135	-364.65286	591.87909	1300.18506	-399.81152	460.56555	1310.01062	-540.01013	330.59698	1314.93762	-672.49847	154.6707	1371.17065	-712.55096	159.8322	1430.95557	-589.24615	31.54763	1366.61694	-235.01062	602.36584	1621.76794	-193.07112	451.94449	1588.14294	-217.35759	276.28671	1590.74438	-208.67165	72.01729	1537.71362	-255.26456	34.09673	1487.85083	-66.91254	37.52438	1532.69128	-235.72455	1700.73218	1494.02686	1973.11523	1023.39612	-3101.91211	2012.54419	1022.07306	-3140.57251	NaN	NaN	NaN
85	0.84	-244.90318	1660.84338	1406.7998	-211.39577	1667.52209	1516.18091	-359.4187	1619.78662	1436.68799	-326.95334	1625.88623	1552.70483	-394.51151	1424.48035	1474.83069	-428.59546	1130.61938	1477.09473	-249.59885	1357.58289	1464.19568	-206.31552	1204.776	1449.44592	-443.54996	1225.79065	1547.08044	-319.80817	1390.23376	1308.64478	-338.19614	1210.14038	1216.83167	-334.38904	1057.0061	1202.59167	-253.73264	972.11279	1177.74219	-134.92645	902.1626	1195.39294	-181.4673	873.94586	1171.37646	-107.93478	833.95813	1160.25659	-306.45755	1379.06482	1620.87024	-374.02515	1178.40186	1712.78906	-382.41608	1055.99817	1712.13562	-373.63098	937.07166	1742.99512	-311.27817	808.92487	1728.67102	-356.67615	817.27295	1765.5199	-334.10785	733.7854	1763.12842	-269.94293	922.37115	1350.09216	-239.90549	930.75842	1562.99402	-446.44186	939.36841	1428.54163	-425.41739	942.00952	1572.63184	-347.65768	591.34021	1299.42822	-380.79468	459.92242	1308.198	-524.14862	333.90897	1313.40845	-661.12439	161.77055	1369.69324	-699.53925	169.66818	1429.90784	-587.81219	32.19476	1367.59216	-230.46049	601.15527	1621.09949	-188.338	451.56967	1588.98792	-214.18036	276.32016	1591.18799	-208.31218	72.10306	1537.68738	-255.17192	34.16372	1487.97949	-66.35945	36.8792	1532.36292	-225.86258	1701.68054	1495.88965	1973.20801	1023.40521	-3101.87769	2012.58459	1022.02765	-3140.58398	NaN	NaN	NaN
